HIERARCHY
ROOT Hips
{
	OFFSET 0.00000 0.00000 0.00000
	CHANNELS 6 Xposition Yposition Zposition Zrotation Yrotation Xrotation 
	JOINT LHipJoint
	{
		OFFSET 0 0 0
		CHANNELS 3 Zrotation Yrotation Xrotation
		JOINT LeftUpLeg
		{
			OFFSET 1.85742 -1.74412 1.01653
			CHANNELS 3 Zrotation Yrotation Xrotation
			JOINT LeftLeg
			{
				OFFSET 2.54803 -7.00067 0.00000
				CHANNELS 3 Zrotation Yrotation Xrotation
				JOINT LeftFoot
				{
					OFFSET 2.51202 -6.90173 0.00000
					CHANNELS 3 Zrotation Yrotation Xrotation
					JOINT LeftToeBase
					{
						OFFSET 0.17547 -0.48209 1.64281
						CHANNELS 3 Zrotation Yrotation Xrotation
						End Site
						{
							OFFSET 0.00000 -0.00000 0.86587
						}
					}
				}
			}
		}
	}
	JOINT RHipJoint
	{
		OFFSET 0 0 0
		CHANNELS 3 Zrotation Yrotation Xrotation
		JOINT RightUpLeg
		{
			OFFSET -1.95533 -1.74413 1.01654
			CHANNELS 3 Zrotation Yrotation Xrotation
			JOINT RightLeg
			{
				OFFSET -2.49465 -6.85400 0.00000
				CHANNELS 3 Zrotation Yrotation Xrotation
				JOINT RightFoot
				{
					OFFSET -2.54783 -7.00010 0.00000
					CHANNELS 3 Zrotation Yrotation Xrotation
					JOINT RightToeBase
					{
						OFFSET -0.18513 -0.50864 1.69288
						CHANNELS 3 Zrotation Yrotation Xrotation
						End Site
						{
							OFFSET -0.00000 -0.00000 0.89242
						}
					}
				}
			}
		}
	}
	JOINT LowerBack
	{
		OFFSET 0 0 0
		CHANNELS 3 Zrotation Yrotation Xrotation
		JOINT Spine
		{
			OFFSET 0.02173 2.16290 -0.15998
			CHANNELS 3 Zrotation Yrotation Xrotation
			JOINT Spine1
			{
				OFFSET 0.00940 2.17323 -0.00467
				CHANNELS 3 Zrotation Yrotation Xrotation
				JOINT Neck
				{
					OFFSET 0 0 0
					CHANNELS 3 Zrotation Yrotation Xrotation
					JOINT Neck1
					{
						OFFSET 0.01475 1.85823 0.31113
						CHANNELS 3 Zrotation Yrotation Xrotation
						JOINT Head
						{
							OFFSET 0.01902 1.88783 -0.37187
							CHANNELS 3 Zrotation Yrotation Xrotation
							End Site
							{
								OFFSET 0.00489 1.93211 -0.16169
							}
						}
					}
				}
				JOINT LeftShoulder
				{
					OFFSET 0 0 0
					CHANNELS 3 Zrotation Yrotation Xrotation
					JOINT LeftArm
					{
						OFFSET 3.34199 1.32384 -0.07862
						CHANNELS 3 Zrotation Yrotation Xrotation
						JOINT LeftForeArm
						{
							OFFSET 5.27950 -0.00000 0.00000
							CHANNELS 3 Zrotation Yrotation Xrotation
							JOINT LeftHand
							{
								OFFSET 3.53504 -0.00000 0.00000
								CHANNELS 3 Zrotation Yrotation Xrotation
								JOINT LeftFingerBase
								{
									OFFSET 0 0 0
									CHANNELS 3 Zrotation Yrotation Xrotation
									JOINT LeftHandIndex1
									{
										OFFSET 0.66795 -0.00000 0.00000
										CHANNELS 3 Zrotation Yrotation Xrotation
										End Site
										{
											OFFSET 0.53852 -0.00000 0.00000
										}
									}
								}
								JOINT LThumb
								{
									OFFSET 0 0 0
									CHANNELS 3 Zrotation Yrotation Xrotation
									End Site
									{
										OFFSET 0.54674 -0.00000 0.54674
									}
								}
							}
						}
					}
				}
				JOINT RightShoulder
				{
					OFFSET 0 0 0
					CHANNELS 3 Zrotation Yrotation Xrotation
					JOINT RightArm
					{
						OFFSET -3.16149 1.45719 -0.50507
						CHANNELS 3 Zrotation Yrotation Xrotation
						JOINT RightForeArm
						{
							OFFSET -5.25035 -0.00000 0.00000
							CHANNELS 3 Zrotation Yrotation Xrotation
							JOINT RightHand
							{
								OFFSET -3.58884 -0.00000 0.00000
								CHANNELS 3 Zrotation Yrotation Xrotation
								JOINT RightFingerBase
								{
									OFFSET 0 0 0
									CHANNELS 3 Zrotation Yrotation Xrotation
									JOINT RightHandIndex1
									{
										OFFSET -0.77924 -0.00000 0.00000
										CHANNELS 3 Zrotation Yrotation Xrotation
										End Site
										{
											OFFSET -0.62824 -0.00000 0.00000
										}
									}
								}
								JOINT RThumb
								{
									OFFSET 0 0 0
									CHANNELS 3 Zrotation Yrotation Xrotation
									End Site
									{
										OFFSET -0.63783 -0.00000 0.63783
									}
								}
							}
						}
					}
				}
			}
		}
	}
}
MOTION
Frames: 11
Frame Time: 0.0869565
0.00 0.00 0.00 0 0 0 0 0 0 -21 0 0 0 0 0 0 0 0 0 0 0 0 0 0 21 0 0 0 0 0 0 0 0 0 0 0 0 0 0 0 0 0 0 0 0 0 0 -16 0 0 21 0 0 11 0 0 0 -8 0 0 0 0 0 0 0 0 0 0 0 0 0 0 0 0 0 0 0 0 8 0 0 0 0 0 0 0 0 0 0 0 0 0 0 0 0 0
0.00 0.00 0.00 -188.5070 79.2743 -179.7250 0.0000 0.0000 0.0000 -16.4504 0.1724 -23.1964 4.6252 12.9489 39.1774 1.2078 -6.5152 -19.6374 0.1464 -2.4654 -6.7937 0.0000 0.0000 0.0000 21.9637 20.9204 -10.6477 -0.9657 -6.2569 17.5315 3.1057 -30.5596 -21.6789 -0.2552 -3.2502 8.9760 6.1917 0.4056 6.1370 2.2988 1.1398 -0.3489 -1.1971 0.4905 -3.7411 0.7459 -0.2110 -20.8995 0.4983 0.9710 40.3946 0.5167 1.1541 18.9087 0.0000 0.0000 0.0000 -87.9357 2.9115 32.6572 19.9777 -30.6155 -5.5200 -0.0000 0.0000 -30.1730 36.0861 51.2493 29.6142 -7.1250 0.0000 -0.0000 -48.8834 85.5308 -45.4256 0.0000 0.0000 0.0000 79.8168 -3.2035 24.5818 -19.8276 30.4341 -5.4437 0.0000 0.0000 0.8192 -20.5579 18.9931 -6.9590 7.1250 -0.0000 -0.0000 4.9652 -9.8565 4.0576
0.00 0.00 0.00 -175.9090 70.6324 -166.6510 0.0000 0.0000 0.0000 -19.1251 -3.3519 -7.3483 1.5550 7.8701 22.3202 1.2167 -2.2380 -20.2315 1.9115 -8.6792 -24.7968 0.0000 0.0000 0.0000 20.7551 10.8357 -25.3413 -0.9159 -6.0980 17.0689 2.3023 -25.6920 -11.0681 -0.1458 -2.4603 6.7796 3.2704 -0.9534 6.9104 3.6543 -0.7398 -0.7147 2.0365 -0.3651 -4.6211 0.0198 -1.0956 -22.3733 2.6002 -1.2902 38.6518 1.1042 0.3813 18.3079 -0.0000 -0.0000 0.0000 -87.6310 -1.6089 38.9033 29.2989 -40.2848 -10.9534 -0.0000 0.0000 -26.7288 34.4895 49.4956 27.5814 -7.1250 0.0000 -0.0000 -33.6663 83.8535 -30.1052 -0.0000 -0.0000 0.0000 77.6982 -2.9692 15.2521 -19.7375 30.3248 -5.3982 0.0000 0.0000 1.2847 -21.6142 18.7165 -7.2457 7.1250 -0.0000 -0.0000 4.2582 -10.0007 3.4639
0.00 0.00 0.00 -163.6180 72.2885 -154.7020 0.0000 0.0000 0.0000 -17.8385 -9.6227 -13.8099 1.7185 8.2533 23.4863 1.3214 2.4092 -22.7023 1.1581 -6.8324 -19.2196 0.0000 0.0000 0.0000 18.2142 14.1795 -23.4946 -0.5274 -4.6538 12.9237 0.6670 -14.7155 -9.2616 -0.7262 5.4450 -15.1822 -0.9661 -0.3980 10.1996 3.1362 -0.3925 1.8402 3.8652 -0.1238 -3.7726 0.5085 -0.2247 -22.3766 2.3410 -0.1624 37.5253 1.0851 0.7841 17.6431 0.0000 -0.0000 0.0000 -82.9855 0.5408 5.7386 13.4767 -21.9817 -2.6290 -0.0000 0.0000 -20.6950 30.4205 48.9286 23.8774 -7.1250 0.0000 -0.0000 -35.5184 81.6049 -30.3438 0.0000 -0.0000 0.0000 77.9926 -6.9034 -7.9106 -11.2563 18.6800 -1.8572 0.0000 0.0000 10.8357 -20.8634 14.1500 -5.3230 7.1250 -0.0000 -0.0000 4.4922 -14.9132 3.1948
0.00 0.00 0.00 -153.2240 73.2039 -144.5060 0.0000 0.0000 0.0000 -15.2623 -11.0398 -15.7797 1.9810 8.8263 25.2534 1.2512 3.7090 -22.7608 0.4493 -4.3003 -11.9231 0.0000 0.0000 0.0000 21.6875 5.0834 -20.7309 -1.6154 -8.0143 22.7575 -0.1546 -6.5879 -12.5630 -0.5685 4.8290 -13.4214 -0.5008 0.0282 9.2172 2.8999 0.1877 1.5358 3.2714 0.1491 -3.5848 0.5495 -0.0786 -22.4531 3.4420 -0.3456 38.1856 1.5785 0.9086 18.0465 0.0000 0.0000 0.0000 -75.3163 7.5214 -31.1568 11.8510 -19.5808 -2.0521 -0.0000 0.0000 -19.2785 35.9788 50.2342 29.1629 -7.1250 0.0000 -0.0000 -37.9464 85.0098 -34.7704 0.0000 0.0000 0.0000 70.6270 -8.4853 -35.2245 -10.5677 17.6226 -1.6426 0.0000 0.0000 15.4739 -20.6282 11.2175 -4.1883 7.1250 -0.0000 -0.0000 4.5551 -18.0377 2.9301
0.00 0.00 0.00 -141.0060 75.6474 -132.1970 0.0000 0.0000 0.0000 -13.3146 -9.8205 -17.7234 2.3551 9.5696 27.5939 1.2052 5.2575 -23.2490 0.2743 -3.3690 -9.3080 0.0000 0.0000 0.0000 23.3344 3.5696 0.3401 -0.1997 -2.8779 7.9390 0.9006 -16.9254 -10.3151 -1.6905 8.1892 -23.2901 -0.0118 0.9437 4.5519 2.6798 1.3694 -0.3367 2.6712 0.7180 -2.9662 -0.6543 -0.3115 -22.0652 4.1416 -0.4271 38.5306 2.1201 0.8262 18.1493 0.0000 -0.0000 0.0000 -63.4432 10.9440 -35.1402 37.0873 -46.2463 -16.3030 -0.0000 0.0000 -36.1699 36.3194 48.5135 28.8402 -7.1250 0.0000 -0.0000 -23.4325 84.0441 -20.9526 0.0000 -0.0000 0.0000 57.3065 -6.7285 -19.1291 -43.9340 50.2354 -21.4162 0.0000 -0.0000 -5.5396 -27.1382 13.4139 -6.7811 7.1250 -0.0000 -0.0000 0.1592 -14.9774 0.1126
0.00 0.00 0.00 -140.0470 75.4890 -132.5970 0.0000 0.0000 0.0000 -12.7727 -10.7631 -16.2626 2.5130 9.8615 28.5294 1.1095 6.0478 -22.9461 0.1793 -2.7275 -7.5210 0.0000 0.0000 0.0000 24.1393 2.6378 6.3763 0.0000 -0.0000 0.0000 1.5788 -21.6699 -10.5547 -1.2032 6.9594 -19.5950 2.3891 2.2125 3.6630 1.7584 3.1509 -1.1808 0.2707 1.5500 -3.2398 2.1532 0.4241 -22.4053 4.9651 -0.8979 37.4152 1.8639 1.1805 17.6517 -0.0000 0.0000 0.0000 -66.7901 2.9490 -2.9076 88.0845 -59.9861 -58.3412 -0.0000 0.0000 -36.0336 37.6384 48.4588 29.9938 -7.1250 0.0000 -0.0000 -19.8786 84.6204 -17.9701 -0.0000 0.0000 0.0000 62.2723 -1.0573 -9.0399 -79.1636 59.5516 -50.6295 0.0000 -0.0000 -0.8031 -27.7329 14.8530 -7.6755 7.1250 -0.0000 -0.0000 -0.1165 -13.3006 -0.0866
0.00 0.00 0.00 -155.7750 70.1434 -148.3040 0.0000 0.0000 0.0000 -15.6570 -7.5523 -12.9587 2.0845 9.0399 25.9204 1.2809 -0.0042 -21.4085 0.8010 -5.7122 -15.9517 0.0000 0.0000 0.0000 22.4811 -1.7144 -3.6064 -1.4469 -7.6040 21.5176 0.9222 -17.4841 -12.1046 -0.2164 2.9949 -8.2645 -0.8131 0.7943 3.3095 2.0374 1.0970 -0.9376 2.4896 0.5873 -2.8755 0.2532 -0.6747 -23.0735 4.8193 -1.6696 38.2657 2.0250 0.6064 18.3289 -0.0000 0.0000 0.0000 -86.8944 12.4031 16.4404 9.7892 -16.4092 -1.4148 -0.0000 0.0000 -29.9295 36.8901 52.2144 30.6751 -7.1250 0.0000 -0.0000 -62.4835 86.1631 -59.0225 -0.0000 0.0000 0.0000 79.4770 -8.0275 -35.8469 -6.9517 11.8397 -0.7217 0.0000 0.0000 36.2219 -21.6076 22.7513 -8.7087 7.1250 -0.0000 -0.0000 4.6022 -5.7678 4.1301
0.00 0.00 0.00 -165.3160 69.7391 -154.4970 0.0000 0.0000 0.0000 -17.7600 -8.3624 -5.2821 1.0264 6.4445 18.0797 1.3074 3.0528 -22.8908 1.5154 -7.7740 -22.0297 0.0000 0.0000 0.0000 17.5401 13.0936 -26.0642 -0.1117 -2.1549 5.9338 0.7536 -15.3370 -8.2307 -0.0993 -2.0319 5.5937 -3.4878 -0.1316 6.2230 1.4967 -0.3652 -0.0496 3.5456 -0.1039 -3.5124 0.6923 -1.1187 -23.4684 4.0398 -2.4498 36.4529 1.3182 0.1256 17.4210 -0.0000 0.0000 0.0000 -77.5750 -1.0759 9.2610 30.4731 -41.2955 -11.7206 -0.0000 0.0000 -37.9840 47.8368 47.5075 39.1543 -7.1250 0.0000 -0.0000 56.3089 87.1431 53.8973 -0.0000 0.0000 0.0000 71.9685 -5.6401 25.3024 -28.5354 39.6045 -10.4632 0.0000 0.0000 1.5565 -25.7484 21.0866 -9.8442 7.1250 -0.0000 -0.0000 1.8246 -6.8136 1.5960
0.00 0.00 0.00 -177.4280 70.0964 -168.0340 0.0000 0.0000 0.0000 -17.2462 0.7971 2.9021 1.1921 6.9282 19.5028 0.3237 -1.7336 -10.2835 3.2423 -11.0774 -32.5413 0.0000 0.0000 0.0000 16.2143 12.6120 -25.0685 -0.6193 -5.0360 14.0114 0.8562 -16.5027 -2.3815 -0.2842 3.4283 -9.4736 0.0590 -0.5716 5.5939 2.7723 -0.6145 -0.8438 2.8902 -0.2599 -3.9821 1.1612 -0.1475 -23.2790 4.9225 -1.6562 34.1390 1.7017 0.5537 16.1728 0.0000 -0.0000 0.0000 -86.9709 -1.3345 41.4182 38.6086 -47.2236 -17.4109 -0.0000 0.0000 -28.5290 34.8632 42.3301 25.1326 -7.1250 0.0000 -0.0000 -5.1225 77.9254 -3.9394 0.0000 -0.0000 0.0000 75.7670 -2.3339 49.0513 -54.5899 54.6869 -29.8810 0.0000 0.0000 2.9031 -24.9940 24.3694 -10.8881 7.1250 -0.0000 -0.0000 2.6870 -3.4502 2.5232
0.00 0.00 0.00 -179.9200 70.0511 -171.7040 0.0000 0.0000 0.0000 -15.0284 3.9378 -3.3673 3.4139 11.3367 33.4241 -0.2094 -8.0899 2.6032 0.1058 -2.0972 -5.7744 0.0000 0.0000 0.0000 17.5711 12.2578 -20.2746 -0.5957 -4.9410 13.7404 0.9540 -17.0715 -4.5589 -0.0649 1.6441 -4.5231 1.0883 -0.6682 5.3812 2.9512 -0.6574 -0.9234 2.4972 -0.2978 -3.9527 1.9188 0.0404 -23.4837 4.6018 -1.5616 34.8710 1.4827 0.6850 16.5797 0.0000 0.0000 0.0000 -87.5877 0.7134 43.0188 33.8268 -43.9560 -13.9927 -0.0000 0.0000 -29.4588 33.6048 43.5683 24.6077 -7.1250 0.0000 -0.0000 -10.1652 78.6171 -7.9719 0.0000 0.0000 0.0000 77.5705 -4.0953 45.0990 -45.6440 51.0801 -22.7387 0.0000 0.0000 2.7179 -23.4572 24.2070 -10.0888 7.1250 -0.0000 -0.0000 3.6094 -3.9166 3.3612
